<?xml version="1.0" standalone="no"?><!DOCTYPE svg PUBLIC "-//W3C//DTD SVG 1.1//EN" "http://www.w3.org/Graphics/SVG/1.1/DTD/svg11.dtd"><svg t="1577705490475" class="icon" viewBox="0 0 1024 1024" version="1.1" xmlns="http://www.w3.org/2000/svg" p-id="4269" width="24" height="24" xmlns:xlink="http://www.w3.org/1999/xlink"><defs><style type="text/css"></style></defs><path d="M752.49333 325.311087c0-131.298372-106.824981-238.123352-238.123353-238.123352s-238.123352 106.824981-238.123352 238.123352c0 85.558631 45.511543 160.500461 113.447818 202.487737-108.379383 38.610366-194.907085 125.83494-230.602052 240.924142-11.099802 35.763528-16.721847 73.048713-16.721846 110.838387 0 16.141632 13.078877 29.219485 29.219485 29.219486s29.219485-13.078877 29.219485-29.219486c0-31.911804 4.746094-63.375399 14.096043-93.52814 41.137932-132.629693 162.172543-221.744313 301.175387-221.744313 2.935865 0 5.712095-0.562818 8.383948-1.367137 126.60242-5.345752 228.028437-109.719914 228.028437-237.610676z m-238.123353 179.684382c-99.082646 0-179.684382-80.601736-179.684382-179.684382s80.601736-179.684382 179.684382-179.684382 179.684382 80.601736 179.684382 179.684382-80.601736 179.684382-179.684382 179.684382zM866.546945 783.752264l-4.40431-13.659091c-21.591761-68.331271-60.741409-128.131239-113.216551-172.930561-12.279674-10.481725-30.712489-9.046027-41.195238 3.242857-10.481725 12.270465-9.026584 30.712489 3.243881 41.195238 44.143383 37.694507 77.149101 88.220251 95.448886 146.107659l4.555759 14.133905c9.179057 28.173666 18.662035 57.307194 18.662035 83.892689 0 16.141632 13.078877 29.219485 29.219485 29.219485 16.141632 0 29.219485-13.078877 29.219486-29.219485 0.001023-35.858696-11.441587-70.993914-21.533433-101.982696z" p-id="4270" fill="#ffffff"></path></svg>